<svg width="900" height="600" viewBox="0 0 900 600" xmlns="http://www.w3.org/2000/svg" role="img" aria-label="Budget Tips" preserveAspectRatio="xMidYMid slice">
  <defs>
    <linearGradient id="g" x1="0" y1="0" x2="1" y2="1">
      <stop offset="0" stop-color="#5a3a2a"/>
      <stop offset="1" stop-color="#37241a"/>
    </linearGradient>
    <radialGradient id="r" cx="0.3" cy="0.25" r="0.9">
      <stop offset="0" stop-color="#d9b98c" stop-opacity="0.35"/>
      <stop offset="1" stop-color="#d9b98c" stop-opacity="0"/>
    </radialGradient>
  </defs>
  <rect width="900" height="600" fill="url(#g)"/>
  <rect width="900" height="600" fill="url(#r)"/>
  <circle cx="848" cy="496" r="150" fill="#d9b98c" opacity="0.10"/>
  <circle cx="652" cy="472" r="100" fill="#ffffff" opacity="0.06"/>
  <circle cx="206" cy="568" r="180" fill="#d9b98c" opacity="0.07"/>
  <g opacity="0.85" transform="translate(424,270)">
    <path d="M26 0C11.6 0 2 9.6 2 22v26h48V22C50 9.6 40.4 0 26 0Z" fill="#ffffff" opacity="0.14"/>
    <path d="M26 0C11.6 0 2 9.6 2 22c8 0 12-4.6 12-4.6S18 22 26 22s12-4.6 12-4.6S42 22 50 22C50 9.6 40.4 0 26 0Z" fill="#d9b98c" opacity="0.55"/>
  </g>
  <text x="450" y="578" text-anchor="middle" font-family="'Jost', system-ui, sans-serif" font-size="31" letter-spacing="3" fill="#ffffff" opacity="0.55" text-transform="uppercase">Budget Tips</text>
</svg>
