<svg width="1200" height="630" viewBox="0 0 1200 630" xmlns="http://www.w3.org/2000/svg" role="img" aria-label="Marquee Events" preserveAspectRatio="xMidYMid slice">
  <defs>
    <linearGradient id="g" x1="0" y1="0" x2="1" y2="1">
      <stop offset="0" stop-color="#27402f"/>
      <stop offset="1" stop-color="#16271d"/>
    </linearGradient>
    <radialGradient id="r" cx="0.3" cy="0.25" r="0.9">
      <stop offset="0" stop-color="#c79a52" stop-opacity="0.35"/>
      <stop offset="1" stop-color="#c79a52" stop-opacity="0"/>
    </radialGradient>
  </defs>
  <rect width="1200" height="630" fill="url(#g)"/>
  <rect width="1200" height="630" fill="url(#r)"/>
  <circle cx="159" cy="93" r="200" fill="#c79a52" opacity="0.10"/>
  <circle cx="291" cy="201" r="133" fill="#ffffff" opacity="0.06"/>
  <circle cx="723" cy="279" r="240" fill="#c79a52" opacity="0.07"/>
  <g opacity="0.85" transform="translate(574,285)">
    <path d="M26 0C11.6 0 2 9.6 2 22v26h48V22C50 9.6 40.4 0 26 0Z" fill="#ffffff" opacity="0.14"/>
    <path d="M26 0C11.6 0 2 9.6 2 22c8 0 12-4.6 12-4.6S18 22 26 22s12-4.6 12-4.6S42 22 50 22C50 9.6 40.4 0 26 0Z" fill="#c79a52" opacity="0.55"/>
  </g>
  <text x="600" y="608" text-anchor="middle" font-family="'Jost', system-ui, sans-serif" font-size="39" letter-spacing="3" fill="#ffffff" opacity="0.55" text-transform="uppercase">Marquee Events</text>
</svg>
