<svg width="640" height="360" viewBox="0 0 640 360" xmlns="http://www.w3.org/2000/svg" role="img" aria-label="Designed Tablescape" preserveAspectRatio="xMidYMid slice">
  <defs>
    <linearGradient id="g" x1="0" y1="0" x2="1" y2="1">
      <stop offset="0" stop-color="#3a2533"/>
      <stop offset="1" stop-color="#241620"/>
    </linearGradient>
    <radialGradient id="r" cx="0.3" cy="0.25" r="0.9">
      <stop offset="0" stop-color="#d08a6a" stop-opacity="0.35"/>
      <stop offset="1" stop-color="#d08a6a" stop-opacity="0"/>
    </radialGradient>
  </defs>
  <rect width="640" height="360" fill="url(#g)"/>
  <rect width="640" height="360" fill="url(#r)"/>
  <circle cx="371" cy="217" r="106" fill="#d08a6a" opacity="0.10"/>
  <circle cx="39" cy="109" r="71" fill="#ffffff" opacity="0.06"/>
  <circle cx="607" cy="281" r="128" fill="#d08a6a" opacity="0.07"/>
  <g opacity="0.85" transform="translate(294,150)">
    <path d="M26 0C11.6 0 2 9.6 2 22v26h48V22C50 9.6 40.4 0 26 0Z" fill="#ffffff" opacity="0.14"/>
    <path d="M26 0C11.6 0 2 9.6 2 22c8 0 12-4.6 12-4.6S18 22 26 22s12-4.6 12-4.6S42 22 50 22C50 9.6 40.4 0 26 0Z" fill="#d08a6a" opacity="0.55"/>
  </g>
  <text x="320" y="338" text-anchor="middle" font-family="'Jost', system-ui, sans-serif" font-size="25" letter-spacing="3" fill="#ffffff" opacity="0.55" text-transform="uppercase">Designed Tablescape</text>
</svg>
